<svg xmlns="http://www.w3.org/2000/svg" xmlns:xlink="http://www.w3.org/1999/xlink" width="24" height="23.41" viewBox="0 0 24 23.41">
  <defs>
    <clipPath id="clip-path">
      <path id="Path_107" data-name="Path 107" d="M159-24a12,12,0,0,1,12,12A12.019,12.019,0,0,1,162.8-.609c-.609.109-.828-.266-.828-.578,0-.391.016-1.687.016-3.3a2.83,2.83,0,0,0-.812-2.219c2.672-.3,5.484-1.312,5.484-5.922a4.648,4.648,0,0,0-1.234-3.219,4.341,4.341,0,0,0-.125-3.187c-1-.312-3.3,1.234-3.3,1.234a11.3,11.3,0,0,0-3-.406,11.3,11.3,0,0,0-3,.406s-2.3-1.547-3.3-1.234a4.341,4.341,0,0,0-.125,3.188,4.648,4.648,0,0,0-1.234,3.219c0,4.594,2.8,5.625,5.469,5.922a2.64,2.64,0,0,0-.766,1.609,2.53,2.53,0,0,1-3.484-1,2.517,2.517,0,0,0-1.844-1.234c-1.172-.016-.078.734-.078.734.781.359,1.328,1.75,1.328,1.75.7,2.141,4.047,1.422,4.047,1.422,0,1,.016,1.938.016,2.234,0,.313-.219.688-.828.578A12.019,12.019,0,0,1,147-12,12,12,0,0,1,159-24ZM151.547-6.766a.143.143,0,0,1-.2.031c-.094-.047-.141-.125-.109-.187.031-.047.109-.062.2-.031C151.531-6.906,151.578-6.828,151.547-6.766Zm.484.531c-.062.063-.172.031-.25-.047-.078-.094-.094-.2-.031-.25.063-.062.172-.031.25.047C152.078-6.391,152.094-6.281,152.031-6.234Zm.469.7c-.062.047-.187,0-.266-.109s-.078-.234,0-.281a.188.188,0,0,1,.266.094A.215.215,0,0,1,152.5-5.531Zm.656.656c-.062.078-.2.063-.312-.047-.109-.094-.141-.234-.063-.3.063-.078.2-.062.313.047C153.188-5.078,153.219-4.937,153.156-4.875Zm.891.391a.228.228,0,0,1-.3.094c-.141-.031-.234-.141-.2-.234a.249.249,0,0,1,.3-.109C153.984-4.687,154.078-4.578,154.047-4.484Zm.984.078c0,.094-.109.172-.25.172-.156.016-.266-.062-.266-.172,0-.094.109-.172.25-.172C154.906-4.594,155.031-4.516,155.031-4.406Zm.906-.156c.016.094-.078.188-.219.219s-.266-.031-.281-.125c-.016-.109.078-.2.219-.234C155.8-4.719,155.922-4.656,155.938-4.562Z" transform="translate(0 24)" fill="none" clip-rule="evenodd"/>
    </clipPath>
    <clipPath id="clip-path-2">
      <rect id="Rectangle_142" data-name="Rectangle 142" width="34" height="34" transform="translate(142 -5)" fill="none"/>
    </clipPath>
    <clipPath id="clip-path-3">
      <path id="Path_103" data-name="Path 103" d="M147,0h24V-24H147Z" transform="translate(0 24)" fill="none"/>
    </clipPath>
    <clipPath id="clip-path-4">
      <path id="Path_106" data-name="Path 106" d="M147-24h24V0H147Z" transform="translate(0 24)" fill="none" clip-rule="evenodd"/>
    </clipPath>
  </defs>
  <g id="github" transform="translate(-147)" clip-path="url(#clip-path)">
    <g id="Group_58" data-name="Group 58" clip-path="url(#clip-path-2)">
      <g id="Group_55" data-name="Group 55" clip-path="url(#clip-path-3)">
        <path id="Path_102" data-name="Path 102" d="M142,4.41h34V-29H142Z" transform="translate(0 24)" fill="#414141"/>
      </g>
      <g id="Group_57" data-name="Group 57" clip-path="url(#clip-path-4)">
        <g id="Group_56" data-name="Group 56" clip-path="url(#clip-path-3)">
          <path id="Path_104" data-name="Path 104" d="M142,5h34V-29H142Z" transform="translate(0 24)"/>
        </g>
      </g>
    </g>
  </g>
</svg>
