<svg xmlns="http://www.w3.org/2000/svg" xmlns:xlink="http://www.w3.org/1999/xlink" width="24" height="24" viewBox="0 0 24 24">
  <defs>
    <clipPath id="clip-path">
      <path id="Path_119" data-name="Path 119" d="M268.313-9.437A6.349,6.349,0,0,1,269-6.562a6.283,6.283,0,0,1-1.937,4.656A6.438,6.438,0,0,1,262.375,0a6.419,6.419,0,0,1-3.125-.75,11.523,11.523,0,0,1-2.125.188,11.077,11.077,0,0,1-8.094-3.312,10.849,10.849,0,0,1-3.344-8,15.036,15.036,0,0,1,.25-2.25A6.792,6.792,0,0,1,245-17.437a6.283,6.283,0,0,1,1.938-4.656A6.438,6.438,0,0,1,251.625-24a6.667,6.667,0,0,1,3.563,1,10.835,10.835,0,0,1,1.938-.125,11.131,11.131,0,0,1,8.094,3.281,10.748,10.748,0,0,1,3.344,7.969A10.2,10.2,0,0,1,268.313-9.437ZM263-6.5a4.05,4.05,0,0,0,.75-2.5,4.175,4.175,0,0,0-.437-2A3.752,3.752,0,0,0,262-12.375a9.649,9.649,0,0,0-1.937-.875q-.875-.25-2.562-.625-1.25-.312-1.562-.375L255-14.625a2.2,2.2,0,0,1-.625-.5,1.215,1.215,0,0,1-.25-.625,1.3,1.3,0,0,1,.688-1.125,3.749,3.749,0,0,1,2-.437,3.069,3.069,0,0,1,1.938.438,5.866,5.866,0,0,1,1,1.25,4.207,4.207,0,0,0,.688.875,1.677,1.677,0,0,0,1,.313,1.554,1.554,0,0,0,1.125-.5,1.493,1.493,0,0,0,.5-1.062,2.747,2.747,0,0,0-.375-1.312,5.28,5.28,0,0,0-1.125-1.25,6.57,6.57,0,0,0-1.875-.937A8.923,8.923,0,0,0,257-19.812a9.085,9.085,0,0,0-3.312.5,5.319,5.319,0,0,0-2.25,1.563,3.656,3.656,0,0,0-.75,2.25,3.533,3.533,0,0,0,.688,2.25,5.164,5.164,0,0,0,2,1.438,15.779,15.779,0,0,0,3,.875,15.911,15.911,0,0,1,2.125.5,2.629,2.629,0,0,1,1.188.688,1.323,1.323,0,0,1,.438,1.063,1.689,1.689,0,0,1-.812,1.438A4.035,4.035,0,0,1,257-6.687,4.35,4.35,0,0,1,255.313-7a2.611,2.611,0,0,1-.937-.687,6.362,6.362,0,0,1-.687-1.187,3.074,3.074,0,0,0-.625-.937,1.351,1.351,0,0,0-1-.375,1.6,1.6,0,0,0-1.187.438,1.493,1.493,0,0,0-.5,1.063,3.4,3.4,0,0,0,.75,2.063A6.014,6.014,0,0,0,253-5a8.5,8.5,0,0,0,4.063.875,9.129,9.129,0,0,0,3.625-.625A4.933,4.933,0,0,0,263-6.5Z" transform="translate(0 24)" fill="none" clip-rule="evenodd"/>
    </clipPath>
    <clipPath id="clip-path-2">
      <rect id="Rectangle_144" data-name="Rectangle 144" width="34" height="34" transform="translate(240 -5)" fill="none"/>
    </clipPath>
    <clipPath id="clip-path-3">
      <path id="Path_115" data-name="Path 115" d="M245,0h24V-24H245Z" transform="translate(0 24)" fill="none"/>
    </clipPath>
    <clipPath id="clip-path-4">
      <path id="Path_118" data-name="Path 118" d="M245-24h24V0H245Z" transform="translate(0 24)" fill="none" clip-rule="evenodd"/>
    </clipPath>
  </defs>
  <g id="skype" transform="translate(-245)" clip-path="url(#clip-path)">
    <g id="Group_68" data-name="Group 68" clip-path="url(#clip-path-2)">
      <g id="Group_65" data-name="Group 65" clip-path="url(#clip-path-3)">
        <path id="Path_114" data-name="Path 114" d="M240,5h34V-29H240Z" transform="translate(0 24)" fill="#f6fbfc"/>
      </g>
      <g id="Group_67" data-name="Group 67" clip-path="url(#clip-path-4)">
        <g id="Group_66" data-name="Group 66" clip-path="url(#clip-path-3)">
          <path id="Path_116" data-name="Path 116" d="M240,5h34V-29H240Z" transform="translate(0 24)"/>
        </g>
      </g>
    </g>
  </g>
</svg>
