<svg width="628" height="104" viewBox="0 0 628 104" fill="none" xmlns="http://www.w3.org/2000/svg">
<path d="M0 51.904C0 32.8073 15.4276 17.3468 34.5242 17.4145C97.6686 17.6386 241.422 18.0682 415.5 18.0682C477 18.0682 482 85.662 541.5 85.662C720.84 85.662 178.594 86.2275 34.2949 86.3748C15.2436 86.3942 0 70.9553 0 51.904V51.904Z" fill="url(#paint0_linear)"/>
<mask id="mask0" mask-type="alpha" maskUnits="userSpaceOnUse" x="0" y="17" width="628" height="70">
<rect y="17.2822" width="628" height="69.1275" rx="34.5638" fill="url(#paint1_linear)"/>
</mask>
<g mask="url(#mask0)">
<ellipse cx="92.8544" cy="52.015" rx="56.0715" ry="61.285" fill="url(#paint2_linear)"/>
</g>
<ellipse cx="92.8943" cy="51.8858" rx="46.4992" ry="49.1786" fill="#AD8E1B"/>
<g clip-path="url(#clip0)">
<mask id="mask1" mask-type="alpha" maskUnits="userSpaceOnUse" x="51" y="9" width="84" height="87">
<ellipse cx="93" cy="52.5" rx="42" ry="43.5" fill="#C4C4C4"/>
</mask>
<g mask="url(#mask1)">
<ellipse cx="93" cy="52.5" rx="42" ry="43.5" fill="url(#paint3_linear)"/>
<ellipse cx="129.482" cy="108.08" rx="64.9586" ry="71.1056" fill="#343536"/>
</g>
</g>
<path d="M412.4 18C359.913 18 519.47 18 592.526 18C611.58 18 627 33.4462 627 52.5V52.5C627 71.5538 611.577 87 592.523 87C579.304 87 562.034 87 540.287 87C479.359 87 479.77 18 412.4 18Z" fill="url(#paint4_linear)"/>
<defs>
<linearGradient id="paint0_linear" x1="314" y1="17.282" x2="314" y2="86.4096" gradientUnits="userSpaceOnUse">
<stop stop-color="#555555"/>
<stop offset="1" stop-color="#333333"/>
</linearGradient>
<linearGradient id="paint1_linear" x1="314" y1="17.2822" x2="314" y2="86.4097" gradientUnits="userSpaceOnUse">
<stop stop-color="#58585B"/>
<stop offset="1" stop-color="#1C1C1D"/>
</linearGradient>
<linearGradient id="paint2_linear" x1="92.6438" y1="8.75498" x2="92.6438" y2="95.275" gradientUnits="userSpaceOnUse">
<stop stop-color="#2B2B2C"/>
<stop offset="1" stop-color="#505153"/>
</linearGradient>
<linearGradient id="paint3_linear" x1="82.2308" y1="-23.9189" x2="106.316" y2="59.6857" gradientUnits="userSpaceOnUse">
<stop stop-color="#868788"/>
<stop offset="1" stop-color="#464747"/>
</linearGradient>
<linearGradient id="paint4_linear" x1="539.65" y1="22.5" x2="541.377" y2="86.0168" gradientUnits="userSpaceOnUse">
<stop stop-color="#EEEEEE"/>
<stop offset="1" stop-color="#999999"/>
</linearGradient>
<clipPath id="clip0">
<rect width="84.3314" height="87.4286" fill="white" transform="translate(51.1362 8.68555)"/>
</clipPath>
</defs>
</svg>
