<svg width="629" height="104" viewBox="0 0 629 104" fill="none" xmlns="http://www.w3.org/2000/svg">
<rect y="17.7148" width="628" height="69.0317" rx="34.5158" fill="url(#paint0_linear)"/>
<mask id="mask0" mask-type="alpha" maskUnits="userSpaceOnUse" x="0" y="17" width="628" height="70">
<rect y="17.7153" width="628" height="69.0316" rx="34.5158" fill="url(#paint1_linear)"/>
</mask>
<g mask="url(#mask0)">
<ellipse cx="92.8544" cy="52.4" rx="56.0714" ry="61.2" fill="url(#paint2_linear)"/>
<path d="M497.881 38.0907V39.4347H498.917C500.149 39.4347 500.849 39.9807 500.849 40.9747V41.0727C500.849 42.0807 500.191 42.6827 499.001 42.6827C497.867 42.6827 497.293 42.1367 496.817 41.3527L495.655 42.2627C496.271 43.1587 497.181 44.0127 499.001 44.0127C501.087 44.0127 502.487 42.8647 502.487 41.1567C502.487 39.7427 501.549 38.9447 500.443 38.7347V38.6647C501.465 38.4407 502.319 37.6707 502.319 36.4247C502.319 34.8427 500.989 33.9047 499.141 33.9047C497.517 33.9047 496.621 34.6607 496.033 35.5147L497.083 36.4247C497.531 35.6827 498.175 35.2347 499.099 35.2347C500.037 35.2347 500.653 35.7387 500.653 36.6207V36.7187C500.653 37.5167 500.079 38.0907 498.875 38.0907H497.881ZM505.632 44.0127C506.318 44.0127 506.654 43.6067 506.654 43.0607V42.8507C506.654 42.3047 506.318 41.8987 505.632 41.8987C504.946 41.8987 504.61 42.3047 504.61 42.8507V43.0607C504.61 43.6067 504.946 44.0127 505.632 44.0127ZM514.186 43.8447V41.9407H515.516V40.6947H514.186V34.0727H512.114L508.152 40.5827V41.9407H512.688V43.8447H514.186ZM512.59 35.5147H512.688V40.6947H509.496L512.59 35.5147ZM523.673 37.7127C523.673 35.3747 522.385 33.9047 520.229 33.9047C518.157 33.9047 516.799 35.2627 516.799 37.2227C516.799 39.0707 518.017 40.2467 519.669 40.2467C520.887 40.2467 521.531 39.5887 521.937 38.8187L522.035 38.8467C521.559 40.9467 520.285 42.2347 518.073 43.8447H520.173C521.783 42.7807 523.673 40.5407 523.673 37.7127ZM520.229 38.9727C519.095 38.9727 518.423 38.3427 518.423 37.1807V36.9847C518.423 35.8227 519.095 35.1927 520.229 35.1927C521.363 35.1927 522.035 35.8227 522.035 36.9847V37.1807C522.035 38.3427 521.363 38.9727 520.229 38.9727Z" fill="#7C0C12"/>
</g>
<ellipse cx="92.8943" cy="51.8858" rx="46.4992" ry="49.1786" fill="#AD8E1B"/>
<g clip-path="url(#clip0)">
<mask id="mask1" mask-type="alpha" maskUnits="userSpaceOnUse" x="51" y="9" width="84" height="87">
<ellipse cx="93" cy="52.5" rx="42" ry="43.5" fill="#C4C4C4"/>
</mask>
<g mask="url(#mask1)">
<ellipse cx="93" cy="52.5" rx="42" ry="43.5" fill="url(#paint3_linear)"/>
<ellipse cx="129.482" cy="108.08" rx="64.9586" ry="71.1056" fill="#343536"/>
</g>
</g>
<path d="M410.378 17.8145C356.989 17.8145 519.842 17.8145 593.698 17.8145C612.7 17.8145 628.103 33.2191 628.103 52.2216V52.2216C628.103 71.2241 612.721 86.6287 593.719 86.6287C580.232 86.6287 562.519 86.6287 540.127 86.6287C478.311 86.6287 478.728 17.8145 410.378 17.8145Z" fill="url(#paint4_linear)"/>
<defs>
<linearGradient id="paint0_linear" x1="314" y1="17.7148" x2="314" y2="86.7465" gradientUnits="userSpaceOnUse">
<stop stop-color="#555555"/>
<stop offset="1" stop-color="#333333"/>
</linearGradient>
<linearGradient id="paint1_linear" x1="314" y1="17.7153" x2="314" y2="86.747" gradientUnits="userSpaceOnUse">
<stop stop-color="#58585B"/>
<stop offset="1" stop-color="#1C1C1D"/>
</linearGradient>
<linearGradient id="paint2_linear" x1="92.6438" y1="9.19995" x2="92.6438" y2="95.5999" gradientUnits="userSpaceOnUse">
<stop stop-color="#2B2B2C"/>
<stop offset="1" stop-color="#505153"/>
</linearGradient>
<linearGradient id="paint3_linear" x1="82.2308" y1="-23.9189" x2="106.316" y2="59.6857" gradientUnits="userSpaceOnUse">
<stop stop-color="#868788"/>
<stop offset="1" stop-color="#464747"/>
</linearGradient>
<linearGradient id="paint4_linear" x1="539.481" y1="22.3024" x2="541.174" y2="85.6497" gradientUnits="userSpaceOnUse">
<stop stop-color="#EEEEEE"/>
<stop offset="1" stop-color="#999999"/>
</linearGradient>
<clipPath id="clip0">
<rect width="84.3314" height="87.4286" fill="white" transform="translate(51.1362 8.68555)"/>
</clipPath>
</defs>
</svg>
