<svg width="224" height="70" viewBox="0 0 224 70" fill="none" xmlns="http://www.w3.org/2000/svg">
<path d="M0 23.1293C0 15.3509 6.29421 9.04435 14.0726 9.04116C44.7763 9.02857 116.62 9 136.5 9C162 9 157.5 37.0425 191 37C219.369 36.9641 62.7164 37.1575 14.0653 37.2175C6.27777 37.2272 0 30.9168 0 23.1293V23.1293Z" fill="url(#paint0_linear)"/>
<mask id="mask0" mask-type="alpha" maskUnits="userSpaceOnUse" x="0" y="9" width="224" height="29">
<rect y="9.047" width="224" height="28.1879" rx="14.094" fill="url(#paint1_linear)"/>
</mask>
<g mask="url(#mask0)">
<ellipse cx="37.5" cy="21" rx="24.5" ry="23" fill="url(#paint2_linear)"/>
</g>
<ellipse cx="37.5" cy="21.2001" rx="21.5" ry="20.4" fill="#7C0C12"/>
<mask id="mask1" mask-type="alpha" maskUnits="userSpaceOnUse" x="18" y="3" width="39" height="37">
<ellipse cx="37.5" cy="21.5" rx="19.5" ry="18.5" fill="#C4C4C4"/>
</mask>
<g mask="url(#mask1)">
<ellipse cx="37.5" cy="21.5" rx="19.5" ry="18.5" fill="url(#paint3_linear)"/>
<ellipse cx="50.6845" cy="40.1216" rx="30.0351" ry="29.4957" fill="#343536"/>
</g>
<path d="M135.796 9C115.718 9 180.406 9 210.01 9C217.742 9 223.998 15.268 223.998 23V23C223.998 30.732 217.746 37 210.014 37C205.376 37 199.2 37 190.979 37C157.138 37 161.578 9 135.796 9Z" fill="url(#paint4_linear)"/>
<defs>
<linearGradient id="paint0_linear" x1="112" y1="9.047" x2="112" y2="37.2349" gradientUnits="userSpaceOnUse">
<stop stop-color="#555555"/>
<stop offset="1" stop-color="#333333"/>
</linearGradient>
<linearGradient id="paint1_linear" x1="112" y1="9.047" x2="112" y2="37.2349" gradientUnits="userSpaceOnUse">
<stop stop-color="#58585B"/>
<stop offset="1" stop-color="#1C1C1D"/>
</linearGradient>
<linearGradient id="paint2_linear" x1="37.408" y1="4.76471" x2="37.408" y2="37.2353" gradientUnits="userSpaceOnUse">
<stop stop-color="#2B2B2C"/>
<stop offset="1" stop-color="#505153"/>
</linearGradient>
<linearGradient id="paint3_linear" x1="32.5" y1="3" x2="42.1436" y2="24.9369" gradientUnits="userSpaceOnUse">
<stop stop-color="#868788"/>
<stop offset="1" stop-color="#464747"/>
</linearGradient>
<linearGradient id="paint4_linear" x1="195.113" y1="10.8261" x2="195.981" y2="36.5908" gradientUnits="userSpaceOnUse">
<stop stop-color="#EEF0F4"/>
<stop offset="1" stop-color="#969B9E"/>
</linearGradient>
</defs>
</svg>
