<svg xmlns="http://www.w3.org/2000/svg" width="214.277" height="44.368" viewBox="0 0 214.277 44.368">
  <g id="matrix-logo-white" transform="translate(-1 -1.6)">
    <path id="Path_138" data-name="Path 138" d="M50.3,7.927a2.373,2.373,0,0,0-1.793-.156,2.269,2.269,0,0,0-1.326,1.092l-22.847.624h0l-.156.468L23.869,9.8,1.1,27.577,30.965,41.768l12.866-9.357.78,1.793a3.2,3.2,0,0,0-1.248,1.248,3.269,3.269,0,0,0-.312,1.248L33.07,41.846l.156.312,9.9-5.146a1.469,1.469,0,0,0,.156.624,2.97,2.97,0,0,0,4.912,1.17,2.8,2.8,0,0,0,.546-.78,2.847,2.847,0,0,0-.624-3.431l4.679-6-.234-.234-4.679,6c-.156-.078-.312-.234-.468-.312a2.846,2.846,0,0,0-2.261-.156.272.272,0,0,0-.156.078L44.143,32.1l8.421-6.082L42.9,20.559l5.458-8.421a2.373,2.373,0,0,0,1.637.078,1.257,1.257,0,0,0,.546-.312l2.5,10.683.312-.078L50.771,11.67a.076.076,0,0,0,.078-.078,4.325,4.325,0,0,0,.468-.624,2.373,2.373,0,0,0,.156-1.793A2.974,2.974,0,0,0,50.3,7.927ZM47.262,34.361a2.615,2.615,0,1,1-2.339,4.679A2.736,2.736,0,0,1,43.6,37.558a2.608,2.608,0,0,1,.156-2.027A2.736,2.736,0,0,1,45.234,34.2,3,3,0,0,1,47.262,34.361Zm-16.3,6.94L1.8,27.5,23.869,10.188l.156.078L19.268,23.522a3.961,3.961,0,0,0-1.326.234A4.614,4.614,0,0,0,15.292,26.1a4.567,4.567,0,0,0-.234,3.509,4.647,4.647,0,0,0,7.486,1.949l7.252,6.94.234-.234-7.252-6.94a3.085,3.085,0,0,0,.78-1.17,3.839,3.839,0,0,0,.468-2.261L38.294,26.8a1.4,1.4,0,0,0,.546.39,2.373,2.373,0,0,0,1.793.156,1.618,1.618,0,0,0,.78-.468l2.261,5.068Zm9.9-18.246a2.373,2.373,0,0,0-1.637-.078,2.208,2.208,0,0,0-1.326,1.17,2.373,2.373,0,0,0-.156,1.793,1.567,1.567,0,0,0,.312.624L24.025,27.577a2.076,2.076,0,0,0-.234-.936,4.614,4.614,0,0,0-2.339-2.651,4.152,4.152,0,0,0-1.871-.468l4.679-13.1,18.09,10.215Zm.858,3.041a2,2,0,0,1-3.665-.312,1.957,1.957,0,0,1,.078-1.482,2.369,2.369,0,0,1,.39-.546,1.618,1.618,0,0,1,.78-.468,1.957,1.957,0,0,1,1.482.078A2.077,2.077,0,0,1,41.725,26.1Zm-24.25,5.926a4.385,4.385,0,0,1-1.949-5.77,5.535,5.535,0,0,1,.78-1.092,4.337,4.337,0,0,1,6.94,4.99A4.428,4.428,0,0,1,17.475,32.022ZM51.94,26.1l-7.954,5.77-2.261-5.146h0c.078-.156.234-.312.312-.468a2.349,2.349,0,0,0-.858-3.041l1.56-2.339ZM24.415,10.11l.078-.312,22.535-.546a2.315,2.315,0,0,0,1.014,2.807L42.583,20.4Zm26.668-.7A1.957,1.957,0,0,1,51,10.89a1.9,1.9,0,0,1-1.17,1.014,1.957,1.957,0,0,1-1.482-.078A1.9,1.9,0,0,1,47.5,9.175a1.9,1.9,0,0,1,1.17-1.014,1.658,1.658,0,0,1,1.482.078A1.787,1.787,0,0,1,51.082,9.409Z" transform="translate(-0.022 -1.337)" fill="#fff"/>
    <g id="Group_85" data-name="Group 85" transform="translate(47.941 20.392)">
      <circle id="Ellipse_36" data-name="Ellipse 36" cx="4.289" cy="4.289" r="4.289" fill="#fff"/>
    </g>
    <g id="Group_86" data-name="Group 86" transform="translate(16.751 1.6)">
      <circle id="Ellipse_37" data-name="Ellipse 37" cx="7.018" cy="7.018" r="7.018" fill="#fff"/>
    </g>
    <g id="Group_87" data-name="Group 87" transform="translate(1 21.64)">
      <circle id="Ellipse_38" data-name="Ellipse 38" cx="4.055" cy="4.055" r="4.055" fill="#fff"/>
    </g>
    <g id="Group_88" data-name="Group 88" transform="translate(25.172 34.428)">
      <circle id="Ellipse_39" data-name="Ellipse 39" cx="5.77" cy="5.77" r="5.77" fill="#fff"/>
    </g>
    <g id="Group_89" data-name="Group 89" transform="translate(69.463 14.7)">
      <path id="Path_139" data-name="Path 139" d="M88.8,18.7h1.793l7.486,10.059L105.487,18.7h1.793V39.13H105.8V20.493L98.7,30.24H97.3l-6.94-9.747V39.208H88.8Z" transform="translate(-88.8 -18.466)" fill="#fff"/>
      <path id="Path_140" data-name="Path 140" d="M126.3,39.064,135.111,18.4h1.56l9.279,20.664h-1.637l-2.5-5.848H130.2l-2.417,5.848Zm4.367-6.94h10.917L135.969,19.8Z" transform="translate(-97.059 -18.4)" fill="#fff"/>
      <path id="Path_141" data-name="Path 141" d="M168.6,20.1h-8.5V18.7h18.4v1.4H170v19.1h-1.4Z" transform="translate(-104.503 -18.466)" fill="#fff"/>
      <path id="Path_142" data-name="Path 142" d="M198.1,39.13V18.7h13.88a4.709,4.709,0,0,1,3.665,1.56,5.965,5.965,0,0,1,1.326,3.977,6.433,6.433,0,0,1-1.092,3.743,4.057,4.057,0,0,1-3.2,1.637l-1.482.078h-.546l5.3,9.513h-1.637l-5.3-9.591H199.66v9.591H198.1Zm1.56-10.917h12.32a3.016,3.016,0,0,0,2.573-1.17,4.866,4.866,0,0,0,.858-2.885,5.3,5.3,0,0,0-.858-2.963,2.974,2.974,0,0,0-2.573-1.248H199.66Z" transform="translate(-112.873 -18.466)" fill="#fff"/>
      <path id="Path_143" data-name="Path 143" d="M237.4,18.7h1.56V39.13H237.4Z" transform="translate(-121.528 -18.466)" fill="#fff"/>
      <path id="Path_144" data-name="Path 144" d="M260.632,28.525,253.224,18.7h1.949l6.55,8.655,6.55-8.655h1.793l-7.486,9.747,8.109,10.761h-2.027l-7.174-9.591-7.174,9.591H252.6Z" transform="translate(-124.876 -18.466)" fill="#fff"/>
    </g>
  </g>
</svg>
