<svg xmlns="http://www.w3.org/2000/svg" width="274.8" height="56.9" viewBox="0 0 274.8 56.9">
  <g id="matrix-logo" transform="translate(-1 -1.6)">
    <path id="Path_138" data-name="Path 138" d="M64.2,8a3.043,3.043,0,0,0-2.3-.2,2.909,2.909,0,0,0-1.7,1.4L30.9,10h0l-.2.6-.4-.2L1.1,33.2,39.4,51.4l16.5-12,1,2.3a4.1,4.1,0,0,0-1.6,1.6,4.193,4.193,0,0,0-.4,1.6L42.1,51.5l.2.4L55,45.3a1.884,1.884,0,0,0,.2.8,3.809,3.809,0,0,0,6.3,1.5,3.592,3.592,0,0,0,.7-1,3.651,3.651,0,0,0-.8-4.4l6-7.7-.3-.3-6,7.7c-.2-.1-.4-.3-.6-.4a3.65,3.65,0,0,0-2.9-.2.349.349,0,0,0-.2.1L56.3,39l10.8-7.8-12.4-7,7-10.8a3.043,3.043,0,0,0,2.1.1,1.612,1.612,0,0,0,.7-.4l3.2,13.7.4-.1L64.8,12.8a.1.1,0,0,0,.1-.1,5.547,5.547,0,0,0,.6-.8,3.043,3.043,0,0,0,.2-2.3A3.814,3.814,0,0,0,64.2,8ZM60.3,41.9a3.354,3.354,0,1,1-3,6A3.508,3.508,0,0,1,55.6,46a3.344,3.344,0,0,1,.2-2.6,3.508,3.508,0,0,1,1.9-1.7A3.854,3.854,0,0,1,60.3,41.9ZM39.4,50.8,2,33.1,30.3,10.9l.2.1L24.4,28a5.079,5.079,0,0,0-1.7.3,5.917,5.917,0,0,0-3.4,3,5.857,5.857,0,0,0-.3,4.5,5.959,5.959,0,0,0,9.6,2.5l9.3,8.9.3-.3L28.9,38a3.956,3.956,0,0,0,1-1.5,4.923,4.923,0,0,0,.6-2.9l18.3-1.4a1.794,1.794,0,0,0,.7.5,3.043,3.043,0,0,0,2.3.2,2.075,2.075,0,0,0,1-.6l2.9,6.5ZM52.1,27.4a3.043,3.043,0,0,0-2.1-.1,2.831,2.831,0,0,0-1.7,1.5,3.043,3.043,0,0,0-.2,2.3,2.01,2.01,0,0,0,.4.8l-18,1.3a2.663,2.663,0,0,0-.3-1.2,5.917,5.917,0,0,0-3-3.4,5.325,5.325,0,0,0-2.4-.6l6-16.8L54,24.3Zm1.1,3.9a2.562,2.562,0,0,1-4.7-.4,2.51,2.51,0,0,1,.1-1.9,3.039,3.039,0,0,1,.5-.7,2.075,2.075,0,0,1,1-.6,2.51,2.51,0,0,1,1.9.1A2.664,2.664,0,0,1,53.2,31.3ZM22.1,38.9a5.624,5.624,0,0,1-2.5-7.4,7.1,7.1,0,0,1,1-1.4,5.562,5.562,0,0,1,8.9,6.4A5.678,5.678,0,0,1,22.1,38.9Zm44.2-7.6L56.1,38.7l-2.9-6.6h0c.1-.2.3-.4.4-.6a3.013,3.013,0,0,0-1.1-3.9l2-3ZM31,10.8l.1-.4L60,9.7a2.969,2.969,0,0,0,1.3,3.6L54.3,24Zm34.2-.9a2.51,2.51,0,0,1-.1,1.9,2.433,2.433,0,0,1-1.5,1.3,2.51,2.51,0,0,1-1.9-.1,2.43,2.43,0,0,1-1.1-3.4,2.433,2.433,0,0,1,1.5-1.3,2.126,2.126,0,0,1,1.9.1A2.292,2.292,0,0,1,65.2,9.9Z" fill="#a7a9ac"/>
    <g id="Group_85" data-name="Group 85">
      <circle id="Ellipse_36" data-name="Ellipse 36" cx="5.5" cy="5.5" r="5.5" transform="translate(61.2 25.7)" fill="#3767b1"/>
    </g>
    <g id="Group_86" data-name="Group 86">
      <circle id="Ellipse_37" data-name="Ellipse 37" cx="9" cy="9" r="9" transform="translate(21.2 1.6)" fill="#91cc87"/>
    </g>
    <g id="Group_87" data-name="Group 87">
      <circle id="Ellipse_38" data-name="Ellipse 38" cx="5.2" cy="5.2" r="5.2" transform="translate(1 27.3)" fill="#f3cd2e"/>
    </g>
    <g id="Group_88" data-name="Group 88">
      <circle id="Ellipse_39" data-name="Ellipse 39" cx="7.4" cy="7.4" r="7.4" transform="translate(32 43.7)" fill="#df1f26"/>
    </g>
    <g id="Group_89" data-name="Group 89">
      <path id="Path_139" data-name="Path 139" d="M88.8,18.7h2.3l9.6,12.9,9.5-12.9h2.3V44.9h-1.9V21l-9.1,12.5H99.7L90.8,21V45h-2Z" fill="#a7a9ac"/>
      <path id="Path_140" data-name="Path 140" d="M126.3,44.9l11.3-26.5h2l11.9,26.5h-2.1l-3.2-7.5H131.3l-3.1,7.5Zm5.6-8.9h14l-7.2-15.8Z" fill="#a7a9ac"/>
      <path id="Path_141" data-name="Path 141" d="M171,20.5H160.1V18.7h23.6v1.8H172.8V45H171Z" fill="#a7a9ac"/>
      <path id="Path_142" data-name="Path 142" d="M198.1,44.9V18.7h17.8a6.039,6.039,0,0,1,4.7,2,7.65,7.65,0,0,1,1.7,5.1,8.25,8.25,0,0,1-1.4,4.8,5.2,5.2,0,0,1-4.1,2.1l-1.9.1h-.7L221,45h-2.1l-6.8-12.3h-12V45h-2Zm2-14h15.8a3.868,3.868,0,0,0,3.3-1.5,6.241,6.241,0,0,0,1.1-3.7,6.8,6.8,0,0,0-1.1-3.8,3.814,3.814,0,0,0-3.3-1.6H200.1Z" fill="#a7a9ac"/>
      <path id="Path_143" data-name="Path 143" d="M237.4,18.7h2V44.9h-2Z" fill="#a7a9ac"/>
      <path id="Path_144" data-name="Path 144" d="M262.9,31.3l-9.5-12.6h2.5l8.4,11.1,8.4-11.1H275l-9.6,12.5L275.8,45h-2.6L264,32.7,254.8,45h-2.2Z" fill="#a7a9ac"/>
    </g>
  </g>
</svg>
