<svg width="224" height="70" viewBox="0 0 224 70" fill="none" xmlns="http://www.w3.org/2000/svg">
<rect y="9.04688" width="224" height="28.1879" rx="14.094" fill="url(#paint0_linear)"/>
<mask id="mask0" mask-type="alpha" maskUnits="userSpaceOnUse" x="0" y="9" width="224" height="29">
<rect y="9.04712" width="224" height="28.1879" rx="14.094" fill="url(#paint1_linear)"/>
</mask>
<g mask="url(#mask0)">
<ellipse cx="37.5" cy="21.1999" rx="24.5" ry="22.8" fill="url(#paint2_linear)"/>
<path d="M179.308 22.246V23.59H180.344C181.576 23.59 182.276 24.136 182.276 25.13V25.228C182.276 26.236 181.618 26.838 180.428 26.838C179.294 26.838 178.72 26.292 178.244 25.508L177.082 26.418C177.698 27.314 178.608 28.168 180.428 28.168C182.514 28.168 183.914 27.02 183.914 25.312C183.914 23.898 182.976 23.1 181.87 22.89V22.82C182.892 22.596 183.746 21.826 183.746 20.58C183.746 18.998 182.416 18.06 180.568 18.06C178.944 18.06 178.048 18.816 177.46 19.67L178.51 20.58C178.958 19.838 179.602 19.39 180.526 19.39C181.464 19.39 182.08 19.894 182.08 20.776V20.874C182.08 21.672 181.506 22.246 180.302 22.246H179.308ZM187.059 28.168C187.745 28.168 188.081 27.762 188.081 27.216V27.006C188.081 26.46 187.745 26.054 187.059 26.054C186.373 26.054 186.037 26.46 186.037 27.006V27.216C186.037 27.762 186.373 28.168 187.059 28.168ZM195.613 28V26.096H196.943V24.85H195.613V18.228H193.541L189.579 24.738V26.096H194.115V28H195.613ZM194.017 19.67H194.115V24.85H190.923L194.017 19.67ZM205.1 21.868C205.1 19.53 203.812 18.06 201.656 18.06C199.584 18.06 198.226 19.418 198.226 21.378C198.226 23.226 199.444 24.402 201.096 24.402C202.314 24.402 202.958 23.744 203.364 22.974L203.462 23.002C202.986 25.102 201.712 26.39 199.5 28H201.6C203.21 26.936 205.1 24.696 205.1 21.868ZM201.656 23.128C200.522 23.128 199.85 22.498 199.85 21.336V21.14C199.85 19.978 200.522 19.348 201.656 19.348C202.79 19.348 203.462 19.978 203.462 21.14V21.336C203.462 22.498 202.79 23.128 201.656 23.128Z" fill="#7C0C12"/>
<path d="M72.176 24.144C73.628 24.144 74.636 23.412 75.2 22.2L74.108 21.54C73.808 22.356 73.172 22.932 72.176 22.932C70.892 22.932 70.1 21.996 70.1 20.448V19.176C70.1 17.628 70.892 16.692 72.176 16.692C73.148 16.692 73.736 17.208 74.024 18L75.164 17.376C74.6 16.128 73.628 15.48 72.176 15.48C69.992 15.48 68.66 17.004 68.66 19.812C68.66 22.62 69.992 24.144 72.176 24.144ZM78.9895 24.144C80.7295 24.144 81.8575 22.872 81.8575 20.88C81.8575 18.888 80.7295 17.616 78.9895 17.616C77.2495 17.616 76.1215 18.888 76.1215 20.88C76.1215 22.872 77.2495 24.144 78.9895 24.144ZM78.9895 23.064C78.1015 23.064 77.5015 22.512 77.5015 21.408V20.352C77.5015 19.248 78.1015 18.696 78.9895 18.696C79.8775 18.696 80.4775 19.248 80.4775 20.352V21.408C80.4775 22.512 79.8775 23.064 78.9895 23.064ZM84.6229 24V19.812C84.6229 19.092 85.2589 18.744 85.9069 18.744C86.6749 18.744 87.0469 19.224 87.0469 20.196V24H88.3549V19.812C88.3549 19.092 88.9669 18.744 89.6269 18.744C90.4189 18.744 90.7789 19.236 90.7789 20.196V24H92.0869V20.04C92.0869 18.504 91.3549 17.616 90.1189 17.616C89.1109 17.616 88.4629 18.192 88.2349 18.888H88.1989C87.8989 18.024 87.1909 17.616 86.3509 17.616C85.4029 17.616 84.9349 18.144 84.6829 18.792H84.6229V17.76H83.3149V24H84.6229ZM95.2049 24V19.812C95.2049 19.092 95.8409 18.744 96.4889 18.744C97.2569 18.744 97.6289 19.224 97.6289 20.196V24H98.9369V19.812C98.9369 19.092 99.5489 18.744 100.209 18.744C101.001 18.744 101.361 19.236 101.361 20.196V24H102.669V20.04C102.669 18.504 101.937 17.616 100.701 17.616C99.6929 17.616 99.0449 18.192 98.8169 18.888H98.7809C98.4809 18.024 97.7729 17.616 96.9329 17.616C95.9849 17.616 95.5169 18.144 95.2649 18.792H95.2049V17.76H93.8969V24H95.2049ZM108.259 24H109.567V17.76H108.259V21.936C108.259 22.668 107.599 23.016 106.927 23.016C106.123 23.016 105.727 22.512 105.727 21.564V17.76H104.419V21.732C104.419 23.268 105.175 24.144 106.459 24.144C107.491 24.144 107.983 23.58 108.211 22.968H108.259V24ZM112.748 24V19.824C112.748 19.092 113.42 18.744 114.104 18.744C114.908 18.744 115.28 19.236 115.28 20.208V24H116.588V20.04C116.588 18.504 115.832 17.616 114.56 17.616C113.6 17.616 113.072 18.12 112.808 18.792H112.748V17.76H111.44V24H112.748ZM119.061 16.644C119.601 16.644 119.829 16.356 119.829 15.96V15.756C119.829 15.36 119.601 15.072 119.061 15.072C118.521 15.072 118.281 15.36 118.281 15.756V15.96C118.281 16.356 118.521 16.644 119.061 16.644ZM118.401 24H119.709V17.76H118.401V24ZM124.445 24V22.932H123.233V18.828H124.541V17.76H123.233V16.056H122.057V17.148C122.057 17.58 121.913 17.76 121.481 17.76H120.953V18.828H121.925V22.644C121.925 23.496 122.405 24 123.305 24H124.445ZM128.539 21.432L128.143 22.788H128.083L127.723 21.432L126.475 17.76H125.167L127.435 24.276L127.075 25.332H126.019V26.4H126.775C127.747 26.4 128.119 26.076 128.419 25.236L131.047 17.76H129.787L128.539 21.432Z" fill="#EEEEEE"/>
</g>
<ellipse cx="37.5" cy="21.2001" rx="21.5" ry="20.4" fill="url(#paint3_linear)"/>
<mask id="mask1" mask-type="alpha" maskUnits="userSpaceOnUse" x="18" y="3" width="39" height="36">
<ellipse cx="37.5" cy="21" rx="19.5" ry="18" fill="#C4C4C4"/>
</mask>
<g mask="url(#mask1)">
<ellipse cx="37.5" cy="21" rx="19.5" ry="18" fill="url(#paint4_linear)"/>
<ellipse cx="50.6845" cy="40.1216" rx="30.0351" ry="29.4957" fill="#343536"/>
</g>
<path d="M31.91 26.3999V25.0839H29.53V16.6279H27.122L24.63 19.3299L25.596 20.1979L27.864 17.7759H27.976V25.0839H25.232V26.3999H31.91ZM34.4245 26.5679C35.1105 26.5679 35.4465 26.1619 35.4465 25.6159V25.4059C35.4465 24.8599 35.1105 24.4539 34.4245 24.4539C33.7385 24.4539 33.4025 24.8599 33.4025 25.4059V25.6159C33.4025 26.1619 33.7385 26.5679 34.4245 26.5679ZM39.1291 20.6459V21.9899H40.1651C41.3971 21.9899 42.0971 22.5359 42.0971 23.5299V23.6279C42.0971 24.6359 41.4391 25.2379 40.2491 25.2379C39.1151 25.2379 38.5411 24.6919 38.0651 23.9079L36.9031 24.8179C37.5191 25.7139 38.4291 26.5679 40.2491 26.5679C42.3351 26.5679 43.7351 25.4199 43.7351 23.7119C43.7351 22.2979 42.7971 21.4999 41.6911 21.2899V21.2199C42.7131 20.9959 43.5671 20.2259 43.5671 18.9799C43.5671 17.3979 42.2371 16.4599 40.3891 16.4599C38.7651 16.4599 37.8691 17.2159 37.2811 18.0699L38.3311 18.9799C38.7791 18.2379 39.4231 17.7899 40.3471 17.7899C41.2851 17.7899 41.9011 18.2939 41.9011 19.1759V19.2739C41.9011 20.0719 41.3271 20.6459 40.1231 20.6459H39.1291ZM45.9416 26.3999H47.4676V24.0199L48.4756 22.9279L50.5616 26.3999H52.3816L49.5256 21.9339L52.0736 19.1199H50.2956L48.5456 21.0939L47.5376 22.3959H47.4676V16.0399H45.9416V26.3999Z" fill="#EEEEEE"/>
<path d="M140.59 9C121.768 9 181.714 9 210.03 9C217.762 9 223.998 15.268 223.998 23C223.998 30.732 217.749 37 210.017 37C205.722 37 200.109 37 192.774 37C160.771 37 164.971 9 140.59 9Z" fill="url(#paint5_linear)"/>
<g filter="url(#filter0_i)">
<path d="M185.312 21.7201V22.8721H186.2C187.256 22.8721 187.856 23.3401 187.856 24.1921V24.2761C187.856 25.1401 187.292 25.6561 186.272 25.6561C185.3 25.6561 184.808 25.1881 184.4 24.5161L183.404 25.2961C183.932 26.0641 184.712 26.7961 186.272 26.7961C188.06 26.7961 189.26 25.8121 189.26 24.3481C189.26 23.1361 188.456 22.4521 187.508 22.2721V22.2121C188.384 22.0201 189.116 21.3601 189.116 20.2921C189.116 18.9361 187.976 18.1321 186.392 18.1321C185 18.1321 184.232 18.7801 183.728 19.5121L184.628 20.2921C185.012 19.6561 185.564 19.2721 186.356 19.2721C187.16 19.2721 187.688 19.7041 187.688 20.4601V20.5441C187.688 21.2281 187.196 21.7201 186.164 21.7201H185.312ZM191.955 26.7961C192.543 26.7961 192.831 26.4481 192.831 25.9801V25.8001C192.831 25.3321 192.543 24.9841 191.955 24.9841C191.367 24.9841 191.079 25.3321 191.079 25.8001V25.9801C191.079 26.4481 191.367 26.7961 191.955 26.7961ZM199.287 26.6521V25.0201H200.427V23.9521H199.287V18.2761H197.511L194.115 23.8561V25.0201H198.003V26.6521H199.287ZM197.919 19.5121H198.003V23.9521H195.267L197.919 19.5121ZM207.419 21.3961C207.419 19.3921 206.315 18.1321 204.467 18.1321C202.691 18.1321 201.527 19.2961 201.527 20.9761C201.527 22.5601 202.571 23.5681 203.987 23.5681C205.031 23.5681 205.583 23.0041 205.931 22.3441L206.015 22.3681C205.607 24.1681 204.515 25.2721 202.619 26.6521H204.419C205.799 25.7401 207.419 23.8201 207.419 21.3961ZM204.467 22.4761C203.495 22.4761 202.919 21.9361 202.919 20.9401V20.7721C202.919 19.7761 203.495 19.2361 204.467 19.2361C205.439 19.2361 206.015 19.7761 206.015 20.7721V20.9401C206.015 21.9361 205.439 22.4761 204.467 22.4761Z" fill="#7C0C12"/>
</g>
<path d="M69 29.4436V29.1914C69 28.9824 69.1554 28.813 69.3472 28.813H74.5552V28.0562C74.5552 27.7194 74.9298 27.5511 75.1479 27.7887L76.3052 29.0499C76.4408 29.1977 76.4408 29.4373 76.3052 29.5851L75.1479 30.8463C74.9306 31.083 74.5552 30.917 74.5552 30.5788V29.822H69.3472C69.1554 29.822 69 29.6526 69 29.4436ZM76.0597 31.84H70.8517V31.0833C70.8517 30.7472 70.4776 30.5775 70.259 30.8157L69.1017 32.077C68.9661 32.2247 68.9661 32.4643 69.1017 32.6121L70.259 33.8733C70.4764 34.1103 70.8517 33.9438 70.8517 33.6058V32.849H76.0597C76.2514 32.849 76.4069 32.6796 76.4069 32.4707V32.2184C76.4069 32.0094 76.2514 31.84 76.0597 31.84Z" fill="#EEEEEE"/>
<defs>
<filter id="filter0_i" x="183.403" y="18.1321" width="24.0151" height="8.664" filterUnits="userSpaceOnUse" color-interpolation-filters="sRGB">
<feFlood flood-opacity="0" result="BackgroundImageFix"/>
<feBlend mode="normal" in="SourceGraphic" in2="BackgroundImageFix" result="shape"/>
<feColorMatrix in="SourceAlpha" type="matrix" values="0 0 0 0 0 0 0 0 0 0 0 0 0 0 0 0 0 0 127 0" result="hardAlpha"/>
<feOffset/>
<feGaussianBlur stdDeviation="5"/>
<feComposite in2="hardAlpha" operator="arithmetic" k2="-1" k3="1"/>
<feColorMatrix type="matrix" values="0 0 0 0 0 0 0 0 0 0 0 0 0 0 0 0 0 0 0.5 0"/>
<feBlend mode="normal" in2="shape" result="effect1_innerShadow"/>
</filter>
<linearGradient id="paint0_linear" x1="112" y1="9.04687" x2="112" y2="37.2348" gradientUnits="userSpaceOnUse">
<stop stop-color="#58585B"/>
<stop offset="1" stop-color="#1C1C1D"/>
</linearGradient>
<linearGradient id="paint1_linear" x1="112" y1="9.04712" x2="112" y2="37.235" gradientUnits="userSpaceOnUse">
<stop stop-color="#58585B"/>
<stop offset="1" stop-color="#1C1C1D"/>
</linearGradient>
<linearGradient id="paint2_linear" x1="37.408" y1="5.10578" x2="37.408" y2="37.294" gradientUnits="userSpaceOnUse">
<stop stop-color="#2B2B2C"/>
<stop offset="1" stop-color="#505153"/>
</linearGradient>
<linearGradient id="paint3_linear" x1="37.5" y1="0.800049" x2="37.5" y2="41.6001" gradientUnits="userSpaceOnUse">
<stop stop-color="#7C0C12"/>
<stop offset="1" stop-color="#7C0C12"/>
</linearGradient>
<linearGradient id="paint4_linear" x1="32.5" y1="-10.6216" x2="41.5248" y2="24.5274" gradientUnits="userSpaceOnUse">
<stop stop-color="#868788"/>
<stop offset="1" stop-color="#464747"/>
</linearGradient>
<linearGradient id="paint5_linear" x1="196.683" y1="10.8261" x2="197.601" y2="36.5873" gradientUnits="userSpaceOnUse">
<stop stop-color="#EEF0F4"/>
<stop offset="1" stop-color="#969B9E"/>
</linearGradient>
</defs>
</svg>
