<svg xmlns="http://www.w3.org/2000/svg" xmlns:xlink="http://www.w3.org/1999/xlink" width="24" height="16.875" viewBox="0 0 24 16.875">
  <defs>
    <clipPath id="clip-path">
      <path id="Path_137" data-name="Path 137" d="M401.522-8.455,408-11.8l-6.482-3.388ZM404-20c5.049,0,8.4.241,8.4.241a3.4,3.4,0,0,1,2.411,1.018,4.212,4.212,0,0,1,.951,2.384A32.432,32.432,0,0,1,416-12.473v1.821a32.432,32.432,0,0,1-.241,3.884,4.278,4.278,0,0,1-.951,2.384,3.427,3.427,0,0,1-2.411,1s-3.348.254-8.4.254c-6.241-.054-8.156-.241-8.156-.241a4.05,4.05,0,0,1-2.652-1.018,4.278,4.278,0,0,1-.951-2.384A32.432,32.432,0,0,1,392-10.652v-1.821a32.432,32.432,0,0,1,.241-3.884,4.212,4.212,0,0,1,.951-2.384,3.4,3.4,0,0,1,2.411-1.018S398.951-20,404-20Z" transform="translate(0 24)" fill="none" clip-rule="evenodd"/>
    </clipPath>
    <clipPath id="clip-path-2">
      <rect id="Rectangle_147" data-name="Rectangle 147" width="34" height="27" transform="translate(387 -1)" fill="none"/>
    </clipPath>
    <clipPath id="clip-path-3">
      <path id="Path_133" data-name="Path 133" d="M391-3h25V-20H391Z" transform="translate(0 24)" fill="none"/>
    </clipPath>
    <clipPath id="clip-path-4">
      <path id="Path_136" data-name="Path 136" d="M392-24h24V0H392Z" transform="translate(0 24)" fill="none" clip-rule="evenodd"/>
    </clipPath>
    <clipPath id="clip-path-5">
      <path id="Path_135" data-name="Path 135" d="M392-3h24V-20H392Z" transform="translate(0 24)" fill="none"/>
    </clipPath>
  </defs>
  <g id="youtube" transform="translate(-392 -4)" clip-path="url(#clip-path)">
    <g id="Group_83" data-name="Group 83" clip-path="url(#clip-path-2)">
      <g id="Group_80" data-name="Group 80" clip-path="url(#clip-path-3)">
        <path id="Path_132" data-name="Path 132" d="M387,1.875h34V-25H387Z" transform="translate(0 24)" fill="#414141"/>
      </g>
      <g id="Group_82" data-name="Group 82" clip-path="url(#clip-path-4)">
        <g id="Group_81" data-name="Group 81" clip-path="url(#clip-path-5)">
          <path id="Path_134" data-name="Path 134" d="M387,5h34V-29H387Z" transform="translate(0 24)"/>
        </g>
      </g>
    </g>
  </g>
</svg>
