<svg width="8" height="7" viewBox="0 0 8 7" fill="none" xmlns="http://www.w3.org/2000/svg">
<path d="M0 2.44363V2.19138C0 1.98241 0.155443 1.813 0.347197 1.813H5.55515V1.05625C5.55515 0.719379 5.92982 0.551079 6.14786 0.788685L7.30519 2.04995C7.44077 2.19772 7.44077 2.4373 7.30519 2.58505L6.14786 3.84631C5.93065 4.08299 5.55515 3.91704 5.55515 3.57877V2.82201H0.347197C0.155443 2.82201 0 2.65261 0 2.44363ZM7.05967 4.84003H1.85172V4.08327C1.85172 3.74724 1.47758 3.57751 1.25901 3.81571L0.101685 5.07697C-0.0338951 5.22475 -0.0338951 5.46432 0.101685 5.61208L1.25901 6.87334C1.47641 7.11025 1.85172 6.94377 1.85172 6.6058V5.84904H7.05967C7.25143 5.84904 7.40687 5.67964 7.40687 5.47066V5.21841C7.40687 5.00943 7.25143 4.84003 7.05967 4.84003Z" fill="#EEEEEE"/>
</svg>
